<?xml version="1.0" encoding="UTF-8" standalone="no" ?>
<!DOCTYPE svg PUBLIC "-//W3C//DTD SVG 1.1//EN" "http://www.w3.org/Graphics/SVG/1.1/DTD/svg11.dtd">
<svg xmlns="http://www.w3.org/2000/svg" xmlns:xlink="http://www.w3.org/1999/xlink" version="1.1" width="640" height="480" viewBox="0 0 640 480" xml:space="preserve">
<desc>Created with Fabric.js 3.6.6</desc>
<defs>
</defs>
<g transform="matrix(1.39 0 0 1.39 321.09 236.97)"  >
<g style=""   >
		<g transform="matrix(1.01 0 0 1.06 -96.62 -75.86)"  >
<path style="stroke: none; stroke-width: 1; stroke-dasharray: none; stroke-linecap: butt; stroke-dashoffset: 0; stroke-linejoin: miter; stroke-miterlimit: 4; fill: rgb(0,0,0); fill-rule: nonzero; opacity: 1;"  transform=" translate(-156.41, -198.19)" d="M 157.54 217.96 h 0 c 0.16 0 0.33 0.01 0.49 0.01 c 2.31 0 4.3 -0.93 5.76 -2.69 c 4.97 -6.03 1.3 -20.77 1.14 -21.39 c -1.1 -4.37 -3.4 -13.45 -10.78 -15.37 c -1.13 -0.29 -2.32 0 -3.19 0.76 c -0.87 0.76 -1.31 1.91 -1.17 3.06 c 0.24 1.95 -0.46 3.8 -1.27 5.95 c -0.44 1.17 -0.9 2.38 -1.26 3.72 c -0.85 3.21 -1.06 8 -0.52 12.19 c 1.09 8.42 5.02 13.44 10.79 13.76 Z m -3.51 -24.15 c 0.27 -1 0.64 -1.99 1.04 -3.05 c 0.23 -0.62 0.49 -1.29 0.73 -2 c 1.21 2.33 1.93 5.21 2.34 6.85 c 1.25 4.96 1.95 13.15 0.24 15.23 c -0.09 0.11 -0.13 0.16 -0.46 0.14 c -3.04 -0.17 -4.01 -5.91 -4.24 -7.66 c -0.49 -3.81 -0.17 -7.59 0.34 -9.5 Z" stroke-linecap="round" />
</g>
		<g transform="matrix(1.01 0 0 1.06 -68.63 -62.16)"  >
<path style="stroke: none; stroke-width: 1; stroke-dasharray: none; stroke-linecap: butt; stroke-dashoffset: 0; stroke-linejoin: miter; stroke-miterlimit: 4; fill: rgb(0,0,0); fill-rule: nonzero; opacity: 1;"  transform=" translate(-184.12, -211.11)" d="M 166.13 215.01 h 0 c -0.51 2.4 0.12 4.66 1.8 6.55 c 1.87 2.09 4.42 3.19 7.37 3.19 s 6.46 -1.12 10.11 -3.34 c 3.62 -2.2 7.23 -5.34 9.21 -8.01 c 0.83 -1.12 1.49 -2.23 2.13 -3.31 c 1.17 -1.97 2.19 -3.68 3.86 -4.7 c 0.99 -0.61 1.61 -1.66 1.67 -2.82 c 0.05 -1.16 -0.47 -2.27 -1.4 -2.96 c -6.1 -4.57 -14.64 -0.7 -18.74 1.16 c -0.59 0.27 -14.4 6.62 -16.01 14.23 Z m 25.72 -10.29 c -0.39 0.61 -0.75 1.21 -1.11 1.81 c -0.58 0.97 -1.12 1.88 -1.74 2.72 c -1.17 1.58 -3.93 4.19 -7.21 6.19 c -1.51 0.92 -6.61 3.74 -8.63 1.47 c -0.22 -0.24 -0.21 -0.3 -0.18 -0.44 h 0 c 0.55 -2.63 7.39 -7.19 12.05 -9.31 c 1.54 -0.7 4.24 -1.93 6.81 -2.44 Z" stroke-linecap="round" />
</g>
		<g transform="matrix(1.01 0 0 1.06 -78.74 -106.76)"  >
<path style="stroke: none; stroke-width: 1; stroke-dasharray: none; stroke-linecap: butt; stroke-dashoffset: 0; stroke-linejoin: miter; stroke-miterlimit: 4; fill: rgb(0,0,0); fill-rule: nonzero; opacity: 1;"  transform=" translate(-174.11, -169.04)" d="M 166.76 187.07 c 1.27 0.78 2.61 1.18 3.97 1.18 c 0.94 0 1.88 -0.19 2.79 -0.56 c 7.2 -2.93 11.02 -17.65 11.18 -18.28 c 1.11 -4.36 3.41 -13.44 -2.17 -18.65 c -0.85 -0.79 -2.04 -1.11 -3.16 -0.85 c -1.13 0.26 -2.06 1.06 -2.48 2.14 c -0.71 1.83 -2.21 3.13 -3.95 4.63 c -0.95 0.82 -1.92 1.67 -2.88 2.68 c -2.28 2.42 -4.73 6.53 -6.25 10.48 c -3.05 7.93 -1.98 14.21 2.95 17.24 Z m 3.58 -14.72 c 1.38 -3.58 3.46 -6.76 4.81 -8.19 c 0.71 -0.75 1.51 -1.44 2.37 -2.19 c 0.52 -0.45 1.06 -0.92 1.59 -1.41 c -0.05 2.62 -0.78 5.5 -1.2 7.14 c -1.26 4.96 -4.54 12.5 -7.03 13.51 c -0.14 0.06 -0.19 0.08 -0.47 -0.09 c -2.59 -1.59 -0.72 -7.11 -0.08 -8.76 Z" stroke-linecap="round" />
</g>
		<g transform="matrix(1.01 0 0 1.06 -54.25 -92.56)"  >
<path style="stroke: none; stroke-width: 1; stroke-dasharray: none; stroke-linecap: butt; stroke-dashoffset: 0; stroke-linejoin: miter; stroke-miterlimit: 4; fill: rgb(0,0,0); fill-rule: nonzero; opacity: 1;"  transform=" translate(-198.36, -182.43)" d="M 180.38 186.38 c -0.5 2.4 0.13 4.66 1.82 6.55 c 1.86 2.08 4.41 3.17 7.35 3.17 s 6.48 -1.13 10.14 -3.36 c 3.61 -2.2 7.22 -5.36 9.19 -8.03 c 0.82 -1.11 1.47 -2.22 2.12 -3.31 c 1.17 -1.98 2.18 -3.68 3.85 -4.71 c 0.99 -0.61 1.61 -1.67 1.66 -2.83 c 0.05 -1.16 -0.48 -2.27 -1.41 -2.96 c -6.12 -4.56 -14.64 -0.67 -18.74 1.21 c -0.59 0.27 -14.38 6.65 -15.97 14.27 Z m 25.69 -10.36 c -0.39 0.6 -0.74 1.21 -1.11 1.82 c -0.57 0.97 -1.11 1.88 -1.73 2.72 c -1.17 1.59 -3.92 4.21 -7.2 6.21 c -1.51 0.92 -6.6 3.75 -8.63 1.49 c -0.22 -0.24 -0.21 -0.3 -0.18 -0.44 c 0.55 -2.63 7.38 -7.21 12.03 -9.34 c 1.54 -0.7 4.24 -1.94 6.81 -2.45 Z" stroke-linecap="round" />
</g>
		<g transform="matrix(1.01 0 0 1.06 -50.15 -134.95)"  >
<path style="stroke: none; stroke-width: 1; stroke-dasharray: none; stroke-linecap: butt; stroke-dashoffset: 0; stroke-linejoin: miter; stroke-miterlimit: 4; fill: rgb(0,0,0); fill-rule: nonzero; opacity: 1;"  transform=" translate(-202.42, -142.44)" d="M 196.08 160.02 h 0 c 0.34 0 0.69 -0.02 1.03 -0.07 c 7.72 -1.02 15.11 -14.3 15.42 -14.87 c 2.17 -3.95 6.69 -12.15 2.6 -18.6 c -0.62 -0.98 -1.69 -1.59 -2.85 -1.62 c -1.13 -0.02 -2.26 0.51 -2.94 1.44 c -1.15 1.59 -2.93 2.47 -4.99 3.49 c -1.12 0.55 -2.28 1.13 -3.45 1.86 c -2.82 1.77 -6.23 5.13 -8.69 8.57 c -4.95 6.9 -5.49 13.25 -1.49 17.42 c 1.49 1.55 3.34 2.37 5.36 2.37 Z m 1.81 -15.71 c 2.24 -3.12 5.05 -5.67 6.72 -6.71 c 0.88 -0.55 1.83 -1.02 2.84 -1.52 c 0.62 -0.31 1.25 -0.62 1.9 -0.97 c -0.71 2.53 -2.14 5.13 -2.96 6.61 c -2.46 4.48 -7.54 10.95 -10.2 11.3 c -0.15 0.02 -0.21 0.03 -0.43 -0.21 c -2.11 -2.19 1.1 -7.06 2.13 -8.5 Z" stroke-linecap="round" />
</g>
		<g transform="matrix(1.01 0 0 1.06 -25.85 -120.18)"  >
<path style="stroke: none; stroke-width: 1; stroke-dasharray: none; stroke-linecap: butt; stroke-dashoffset: 0; stroke-linejoin: miter; stroke-miterlimit: 4; fill: rgb(0,0,0); fill-rule: nonzero; opacity: 1;"  transform=" translate(-226.48, -156.37)" d="M 217.83 167.75 c 2.13 0 4.48 -0.38 6.98 -1.14 c 4.05 -1.22 8.33 -3.36 10.92 -5.46 c 1.08 -0.88 2 -1.79 2.89 -2.67 c 1.63 -1.62 3.03 -3.02 4.91 -3.59 c 1.11 -0.34 1.98 -1.21 2.32 -2.32 c 0.34 -1.11 0.11 -2.31 -0.61 -3.22 c -4.78 -5.96 -14 -4.33 -18.44 -3.55 c -0.63 0.11 -15.59 2.81 -19.05 9.79 c -1.09 2.2 -1.05 4.55 0.11 6.8 c 1.81 3.51 5.27 5.36 9.99 5.36 Z m -3.82 -9.05 c 1.19 -2.41 8.95 -5.12 13.99 -6 c 1.46 -0.26 3.9 -0.69 6.25 -0.69 c 0.33 0 0.65 0 0.95 0.03 c -0.53 0.49 -1.04 1 -1.55 1.51 c -0.79 0.79 -1.54 1.53 -2.34 2.17 c -1.53 1.24 -4.85 3.08 -8.53 4.19 c -1.69 0.51 -7.33 1.97 -8.73 -0.73 c -0.15 -0.29 -0.13 -0.34 -0.06 -0.48 Z" stroke-linecap="round" />
</g>
		<g transform="matrix(1.01 0 0 1.06 -17.66 -149.39)"  >
<path style="stroke: none; stroke-width: 1; stroke-dasharray: none; stroke-linecap: butt; stroke-dashoffset: 0; stroke-linejoin: miter; stroke-miterlimit: 4; fill: rgb(0,0,0); fill-rule: nonzero; opacity: 1;"  transform=" translate(-234.59, -128.82)" d="M 225.07 144.09 h 0 c 0.29 0.03 0.58 0.05 0.87 0.05 c 7.62 0 17.24 -10.38 17.64 -10.82 c 3.05 -3.32 9.39 -10.22 6.94 -17.45 c -0.37 -1.1 -1.26 -1.94 -2.38 -2.25 c -1.12 -0.31 -2.31 -0.05 -3.2 0.7 c -1.5 1.27 -3.43 1.7 -5.69 2.21 c -1.22 0.27 -2.47 0.55 -3.79 0.99 c -3.15 1.04 -7.27 3.5 -10.48 6.25 c -6.45 5.53 -8.49 11.57 -5.59 16.57 c 1.27 2.19 3.23 3.49 5.66 3.76 Z m 4.48 -15.01 c 2.92 -2.5 6.26 -4.3 8.13 -4.92 c 0.98 -0.32 2.01 -0.56 3.12 -0.8 c 0.68 -0.15 1.37 -0.3 2.07 -0.49 c -1.29 2.28 -3.29 4.47 -4.44 5.72 c -3.46 3.77 -9.92 8.85 -12.6 8.55 c -0.15 -0.02 -0.2 -0.02 -0.37 -0.31 c -1.53 -2.63 2.74 -6.59 4.08 -7.75 Z" stroke-linecap="round" />
</g>
		<g transform="matrix(1.01 0 0 1.06 15.66 -130.02)"  >
<path style="stroke: none; stroke-width: 1; stroke-dasharray: none; stroke-linecap: butt; stroke-dashoffset: 0; stroke-linejoin: miter; stroke-miterlimit: 4; fill: rgb(0,0,0); fill-rule: nonzero; opacity: 1;"  transform=" translate(-267.58, -147.08)" d="M 263.31 156.98 c 4.23 -0.22 8.9 -1.29 11.9 -2.71 c 1.25 -0.59 2.36 -1.26 3.44 -1.91 c 1.97 -1.18 3.67 -2.21 5.62 -2.32 c 1.16 -0.07 2.21 -0.7 2.8 -1.7 c 0.6 -1 0.66 -2.22 0.17 -3.27 c -3.22 -6.92 -12.57 -7.54 -17.07 -7.84 c -1.62 -0.1 -15.93 -0.84 -20.83 4.98 c -1.58 1.87 -2.1 4.17 -1.51 6.63 c 1.25 5.2 6.29 8.18 13.83 8.18 c 0.54 0 1.09 -0.01 1.65 -0.04 Z m 3.95 -12.83 c 0.87 0 1.69 0.03 2.45 0.08 c 1.69 0.11 4.65 0.31 7.16 1.07 c -0.64 0.35 -1.25 0.72 -1.85 1.09 c -0.96 0.58 -1.87 1.12 -2.8 1.56 c -1.78 0.84 -5.44 1.84 -9.28 2.05 c -1.77 0.09 -7.59 0.17 -8.3 -2.79 c -0.08 -0.32 -0.04 -0.36 0.06 -0.48 c 1.43 -1.69 7.41 -2.58 12.57 -2.58 Z" stroke-linecap="round" />
</g>
		<g transform="matrix(1.01 0 0 1.06 19.3 -153.23)"  >
<path style="stroke: none; stroke-width: 1; stroke-dasharray: none; stroke-linecap: butt; stroke-dashoffset: 0; stroke-linejoin: miter; stroke-miterlimit: 4; fill: rgb(0,0,0); fill-rule: nonzero; opacity: 1;"  transform=" translate(-271.18, -125.2)" d="M 255.87 134.82 h 0 c 1.46 0.82 3.36 1.23 5.64 1.23 c 6.87 0 15.26 -3.78 15.61 -3.94 c 4.1 -1.87 12.62 -5.75 13.19 -13.36 c 0.09 -1.16 -0.41 -2.28 -1.31 -3 c -0.91 -0.72 -2.11 -0.95 -3.22 -0.6 c -1.87 0.59 -3.82 0.23 -6.09 -0.18 c -1.23 -0.22 -2.5 -0.46 -3.88 -0.57 c -3.31 -0.27 -8.05 0.39 -12.09 1.68 c -8.09 2.58 -12.32 7.35 -11.6 13.09 c 0.32 2.51 1.61 4.47 3.75 5.67 Z m 19.38 -13.45 c 1.03 0.08 2.08 0.27 3.19 0.48 c 0.65 0.12 1.36 0.25 2.1 0.36 c -2.08 1.6 -4.78 2.83 -6.32 3.53 c -4.66 2.12 -12.59 4.28 -14.93 2.97 c -0.13 -0.07 -0.18 -0.1 -0.22 -0.42 c -0.38 -3.02 5.09 -5.01 6.78 -5.54 c 3.65 -1.16 7.44 -1.52 9.4 -1.37 Z" stroke-linecap="round" />
</g>
		<g transform="matrix(1.01 0 0 1.06 55.33 -125.19)"  >
<path style="stroke: none; stroke-width: 1; stroke-dasharray: none; stroke-linecap: butt; stroke-dashoffset: 0; stroke-linejoin: miter; stroke-miterlimit: 4; fill: rgb(0,0,0); fill-rule: nonzero; opacity: 1;"  transform=" translate(-306.86, -151.64)" d="M 310.41 162.74 c 0.25 0 0.5 0 0.74 -0.01 c 1.39 -0.06 2.67 -0.24 3.91 -0.42 c 2.27 -0.33 4.24 -0.61 6.08 0.05 c 1.09 0.39 2.3 0.21 3.24 -0.47 c 0.94 -0.69 1.47 -1.79 1.43 -2.95 c -0.27 -7.63 -8.64 -11.84 -12.67 -13.86 c -0.58 -0.29 -14.18 -7.06 -21.13 -3.53 c -2.18 1.11 -3.56 3.02 -3.97 5.52 c -0.94 5.71 3.1 10.63 11.09 13.52 c 3.68 1.33 8 2.16 11.28 2.16 Z m -13.42 -15.27 c 3.34 0 9.24 1.96 13.01 3.86 c 1.51 0.76 4.16 2.09 6.17 3.78 c -0.72 0.08 -1.43 0.18 -2.11 0.28 c -1.11 0.16 -2.17 0.31 -3.2 0.35 c -1.97 0.08 -5.73 -0.43 -9.34 -1.73 c -1.66 -0.6 -7.06 -2.8 -6.56 -5.8 c 0.05 -0.32 0.1 -0.35 0.24 -0.42 c 0.41 -0.21 1.01 -0.31 1.8 -0.31 Z" stroke-linecap="round" />
</g>
		<g transform="matrix(1.01 0 0 1.06 122.62 -114.87)"  >
<path style="stroke: none; stroke-width: 1; stroke-dasharray: none; stroke-linecap: butt; stroke-dashoffset: 0; stroke-linejoin: miter; stroke-miterlimit: 4; fill: rgb(0,0,0); fill-rule: nonzero; opacity: 1;"  transform=" translate(-373.47, -161.38)" d="M 358.9 150.97 c -2.21 1.06 -3.62 2.94 -4.09 5.43 c -1.07 5.68 2.86 10.7 10.79 13.77 c 3.96 1.53 8.65 2.48 11.96 2.41 c 1.39 -0.03 2.67 -0.18 3.92 -0.33 c 2.28 -0.28 4.25 -0.51 6.08 0.19 c 0.4 0.15 0.82 0.23 1.25 0.23 c 0.72 0 1.42 -0.22 2 -0.63 c 0.95 -0.67 1.51 -1.76 1.5 -2.92 c -0.11 -7.63 -8.38 -12.03 -12.36 -14.14 c -0.57 -0.3 -14.04 -7.36 -21.04 -3.99 Z m 23.85 14.09 c -0.72 0.06 -1.42 0.15 -2.12 0.23 c -1.12 0.14 -2.17 0.26 -3.22 0.28 c -1.93 0.05 -5.69 -0.54 -9.3 -1.94 c -1.65 -0.64 -6.99 -2.95 -6.43 -5.94 c 0.06 -0.32 0.11 -0.35 0.25 -0.41 c 0.41 -0.2 0.97 -0.28 1.64 -0.28 c 3.31 0 9.33 2.16 13.09 4.15 l 0.23 -0.44 l -0.23 0.44 c 1.49 0.79 4.11 2.19 6.09 3.91 Z" stroke-linecap="round" />
</g>
		<g transform="matrix(1.01 0 0 1.06 54.81 -147.77)"  >
<path style="stroke: none; stroke-width: 1; stroke-dasharray: none; stroke-linecap: butt; stroke-dashoffset: 0; stroke-linejoin: miter; stroke-miterlimit: 4; fill: rgb(0,0,0); fill-rule: nonzero; opacity: 1;"  transform=" translate(-306.34, -130.34)" d="M 286.72 127.79 c -0.71 2.43 -0.3 4.74 1.19 6.69 c 4.34 5.68 17.53 5.97 20.12 5.97 h 0.45 c 4.5 -0.09 13.87 -0.26 17.42 -7.02 c 0.54 -1.03 0.54 -2.25 -0.01 -3.28 s -1.56 -1.71 -2.72 -1.83 c -1.95 -0.21 -3.6 -1.31 -5.51 -2.59 c -1.04 -0.7 -2.11 -1.42 -3.34 -2.07 c -2.93 -1.56 -7.55 -2.85 -11.76 -3.27 c -8.45 -0.85 -14.23 1.84 -15.85 7.39 Z m 6.72 1.96 c 0.61 -2.07 3.66 -2.51 6.11 -2.51 c 0.93 0 1.77 0.07 2.32 0.12 c 3.82 0.39 7.43 1.56 9.17 2.49 c 0.92 0.49 1.8 1.08 2.74 1.71 c 0.58 0.38 1.16 0.78 1.78 1.16 c -2.54 0.64 -5.51 0.7 -7.2 0.73 c -5.09 0.1 -13.25 -1.08 -14.88 -3.22 c -0.09 -0.12 -0.12 -0.16 -0.03 -0.48 Z" stroke-linecap="round" />
</g>
		<g transform="matrix(1.01 0 0 1.06 90.8 -108.57)"  >
<path style="stroke: none; stroke-width: 1; stroke-dasharray: none; stroke-linecap: butt; stroke-dashoffset: 0; stroke-linejoin: miter; stroke-miterlimit: 4; fill: rgb(0,0,0); fill-rule: nonzero; opacity: 1;"  transform=" translate(-341.98, -167.32)" d="M 346.14 179.73 c 2.21 0.61 4.13 1.13 5.56 2.47 c 0.65 0.61 1.5 0.94 2.39 0.94 c 0.26 0 0.52 -0.03 0.77 -0.09 c 1.13 -0.26 2.06 -1.06 2.48 -2.14 c 2.78 -7.11 -3.22 -14.3 -6.1 -17.76 c -0.41 -0.49 -10.2 -12.1 -17.98 -11.64 c -2.45 0.15 -4.46 1.35 -5.84 3.48 c -3.13 4.86 -1.39 10.99 4.79 16.82 c 3.08 2.9 7.07 5.55 10.17 6.75 c 1.3 0.5 2.54 0.84 3.75 1.17 Z m -12.83 -20.94 h 0 c 0.18 -0.28 0.23 -0.28 0.38 -0.29 h 0.11 c 2.75 0 8.88 5.32 12.06 9.14 c 1.08 1.3 2.99 3.58 4.16 5.92 c -0.69 -0.22 -1.38 -0.4 -2.05 -0.59 c -1.08 -0.3 -2.11 -0.58 -3.08 -0.95 c -1.84 -0.71 -5.09 -2.67 -7.88 -5.31 c -1.29 -1.21 -5.36 -5.38 -3.71 -7.93 Z" stroke-linecap="round" />
</g>
		<g transform="matrix(1.01 0 0 1.06 94.43 -137.78)"  >
<path style="stroke: none; stroke-width: 1; stroke-dasharray: none; stroke-linecap: butt; stroke-dashoffset: 0; stroke-linejoin: miter; stroke-miterlimit: 4; fill: rgb(0,0,0); fill-rule: nonzero; opacity: 1;"  transform=" translate(-345.56, -139.77)" d="M 326.31 145.52 c 3.49 3.79 10.99 4.59 16.68 4.59 c 3.25 0 5.68 -0.27 5.78 -0.28 c 4.78 -0.52 14.72 -1.61 17.81 -9.07 c 0.44 -1.07 0.33 -2.29 -0.31 -3.26 s -1.71 -1.56 -2.87 -1.58 c -2.18 -0.03 -4.09 -1.07 -6.33 -2.29 c -1.17 -0.64 -2.38 -1.3 -3.74 -1.87 c -2.68 -1.13 -7.7 -2.29 -12.85 -2.34 h -0.35 c -8.81 0 -14.53 3.38 -15.68 9.27 c -0.51 2.59 0.14 4.95 1.87 6.83 Z m 5 -5.49 h 0 c 0.64 -3.26 6.39 -3.62 8.84 -3.62 h 0.26 c 4.18 0.04 8.22 0.96 10.2 1.8 c 1.04 0.44 2.06 0.99 3.13 1.58 c 0.83 0.45 1.68 0.92 2.59 1.35 c -2.81 1.13 -6.33 1.51 -8.33 1.73 c -5.54 0.61 -14.52 0.11 -16.54 -2.09 c -0.15 -0.16 -0.24 -0.27 -0.15 -0.75 Z" stroke-linecap="round" />
</g>
		<g transform="matrix(1.01 0 0 1.06 -37.02 -9.97)"  >
<path style="stroke: none; stroke-width: 1; stroke-dasharray: none; stroke-linecap: butt; stroke-dashoffset: 0; stroke-linejoin: miter; stroke-miterlimit: 4; fill: rgb(0,0,0); fill-rule: nonzero; opacity: 1;"  transform=" translate(-215.42, -260.34)" d="M 201.18 272.19 c -1.56 1.89 -2.05 4.19 -1.43 6.64 c 1.29 5.1 6.25 8.03 13.6 8.03 c 0.64 0 1.3 -0.02 1.97 -0.06 c 4.22 -0.27 8.88 -1.39 11.87 -2.84 c 1.25 -0.61 2.35 -1.29 3.41 -1.94 c 1.95 -1.21 3.64 -2.25 5.6 -2.38 c 1.16 -0.08 2.2 -0.73 2.78 -1.73 c 0.58 -1 0.63 -2.23 0.13 -3.27 c -3.3 -6.88 -12.66 -7.4 -17.16 -7.64 c -1.32 -0.07 -10.96 -0.45 -17.15 2.52 c 5.87 -4.37 9.69 -15.25 9.87 -15.78 c 1.47 -4.26 4.53 -13.11 -0.59 -18.77 c -0.78 -0.86 -1.93 -1.28 -3.08 -1.12 c -1.15 0.16 -2.14 0.88 -2.65 1.92 c -0.87 1.76 -2.47 2.93 -4.32 4.28 c -1.01 0.74 -2.05 1.5 -3.09 2.43 c -2.48 2.22 -5.27 6.11 -7.12 9.91 c -3.71 7.64 -3.17 13.99 1.49 17.42 c 1.38 1.02 2.88 1.53 4.45 1.53 c 0.74 0 1.49 -0.12 2.24 -0.35 c 0.27 -0.09 0.55 -0.19 0.81 -0.31 c -0.62 0.45 -1.17 0.95 -1.63 1.51 Z m -1.06 -16.76 c 1.68 -3.45 4.02 -6.44 5.49 -7.76 c 0.78 -0.7 1.64 -1.32 2.55 -1.99 c 0.56 -0.41 1.12 -0.82 1.69 -1.27 c -0.27 2.6 -1.24 5.4 -1.79 7.01 c -1.67 4.84 -5.58 12.07 -8.15 12.87 c -0.14 0.04 -0.19 0.06 -0.46 -0.13 c -2.45 -1.8 -0.12 -7.14 0.66 -8.73 l -0.45 -0.22 l 0.45 0.22 Z m 6.46 21.21 h 0 c 1.46 -1.77 7.8 -2.72 13.03 -2.72 c 0.69 0 1.35 0.02 1.96 0.05 c 1.69 0.09 4.65 0.26 7.17 0.99 c -0.63 0.36 -1.23 0.73 -1.83 1.1 c -0.96 0.59 -1.86 1.15 -2.8 1.6 c -1.77 0.86 -5.42 1.9 -9.25 2.15 c -1.77 0.11 -7.59 0.26 -8.33 -2.69 c -0.08 -0.32 -0.04 -0.36 0.05 -0.48 Z" stroke-linecap="round" />
</g>
		<g transform="matrix(1.01 0 0 1.06 -16.15 -32.88)"  >
<path style="stroke: none; stroke-width: 1; stroke-dasharray: none; stroke-linecap: butt; stroke-dashoffset: 0; stroke-linejoin: miter; stroke-miterlimit: 4; fill: rgb(0,0,0); fill-rule: nonzero; opacity: 1;"  transform=" translate(-236.08, -238.73)" d="M 252.95 227.02 c -0.28 -1.13 -1.09 -2.04 -2.18 -2.45 c -1.09 -0.41 -2.3 -0.25 -3.25 0.43 c -1.6 1.14 -3.56 1.4 -5.85 1.71 c -1.24 0.17 -2.52 0.34 -3.87 0.66 c -3.23 0.77 -7.54 2.87 -10.98 5.34 c -6.9 4.96 -9.44 10.8 -6.98 16.03 c 1.08 2.29 2.92 3.75 5.32 4.22 c 0.52 0.1 1.07 0.15 1.64 0.15 c 7.48 0 17.31 -8.93 17.73 -9.31 c 3.32 -3.04 10.22 -9.38 8.41 -16.79 Z m -13.14 11.63 c -3.77 3.46 -10.63 7.96 -13.28 7.45 c -0.15 -0.03 -0.2 -0.04 -0.34 -0.34 c -1.29 -2.75 3.29 -6.34 4.73 -7.37 c 3.12 -2.24 6.6 -3.75 8.52 -4.21 c 1.01 -0.24 2.06 -0.38 3.19 -0.54 c 0.68 -0.09 1.38 -0.19 2.09 -0.31 c -1.48 2.17 -3.67 4.17 -4.91 5.32 Z" stroke-linecap="round" />
</g>
		<g transform="matrix(1.01 0 0 1.06 -3.27 -10.37)"  >
<path style="stroke: none; stroke-width: 1; stroke-dasharray: none; stroke-linecap: butt; stroke-dashoffset: 0; stroke-linejoin: miter; stroke-miterlimit: 4; fill: rgb(0,0,0); fill-rule: nonzero; opacity: 1;"  transform=" translate(-248.84, -259.97)" d="M 252.23 250.69 h 0 c -1.6 -0.24 -15.8 -2.2 -21.18 3.18 c -1.73 1.73 -2.45 3.97 -2.07 6.47 c 0.87 5.72 6.24 9.15 14.73 9.43 c 0.37 0.01 0.74 0.02 1.12 0.02 c 3.95 0 8.15 -0.65 10.97 -1.7 c 1.31 -0.49 2.47 -1.06 3.59 -1.61 l 0.15 -0.07 c 2 -0.98 3.71 -1.83 5.66 -1.76 c 1.12 0.02 2.26 -0.52 2.93 -1.45 c 0.68 -0.94 0.85 -2.16 0.45 -3.25 c -2.62 -7.17 -11.88 -8.58 -16.33 -9.26 Z m 5.98 8.6 c -0.68 0.3 -1.33 0.62 -1.92 0.92 c -1.01 0.5 -1.96 0.97 -2.94 1.33 c -1.85 0.69 -5.58 1.37 -9.42 1.25 c -1.77 -0.06 -7.58 -0.48 -8.04 -3.48 c -0.05 -0.32 0 -0.36 0.1 -0.47 c 1.19 -1.19 4.87 -1.67 8.7 -1.67 c 2.27 0 4.6 0.17 6.48 0.46 c 1.67 0.26 4.61 0.7 7.04 1.68 Z" stroke-linecap="round" />
</g>
		<g transform="matrix(1.01 0 0 1.06 23.2 -40.91)"  >
<path style="stroke: none; stroke-width: 1; stroke-dasharray: none; stroke-linecap: butt; stroke-dashoffset: 0; stroke-linejoin: miter; stroke-miterlimit: 4; fill: rgb(0,0,0); fill-rule: nonzero; opacity: 1;"  transform=" translate(-275.05, -231.15)" d="M 260.46 241.52 c 1.27 0.61 2.83 0.92 4.65 0.92 c 7.07 0 16.02 -4.7 16.4 -4.9 c 3.98 -2.11 12.26 -6.5 12.37 -14.13 c 0.02 -1.16 -0.54 -2.25 -1.49 -2.92 c -0.95 -0.67 -2.17 -0.82 -3.25 -0.4 c -1.83 0.7 -3.8 0.46 -6.09 0.18 c -1.24 -0.15 -2.52 -0.31 -3.91 -0.33 c -3.35 -0.05 -8.04 0.88 -11.96 2.4 c -7.92 3.06 -11.86 8.07 -10.79 13.76 c 0.46 2.49 1.88 4.37 4.09 5.43 Z m 18.34 -14.59 c 0.06 0 0.13 0 0.19 0 c 1.04 0.02 2.09 0.15 3.22 0.28 c 0.69 0.08 1.39 0.17 2.11 0.23 c -1.98 1.72 -4.6 3.11 -6.09 3.91 c -4.52 2.4 -12.31 5.03 -14.73 3.86 c -0.13 -0.06 -0.18 -0.09 -0.24 -0.41 c -0.56 -2.99 4.78 -5.3 6.43 -5.94 c 3.47 -1.34 7.1 -1.93 9.11 -1.93 Z" stroke-linecap="round" />
</g>
		<g transform="matrix(1.01 0 0 1.06 35.58 -17.69)"  >
<path style="stroke: none; stroke-width: 1; stroke-dasharray: none; stroke-linecap: butt; stroke-dashoffset: 0; stroke-linejoin: miter; stroke-miterlimit: 4; fill: rgb(0,0,0); fill-rule: nonzero; opacity: 1;"  transform=" translate(-287.3, -253.06)" d="M 293.04 245.95 h 0 c -0.59 -0.25 -14.59 -6.19 -21.3 -2.26 c -2.11 1.24 -3.37 3.23 -3.63 5.74 c -0.6 5.75 3.73 10.43 11.88 12.83 c 3.21 0.95 6.97 1.52 10.04 1.52 c 0.74 0 1.44 -0.03 2.08 -0.1 c 1.38 -0.14 2.65 -0.4 3.88 -0.65 c 2.25 -0.46 4.19 -0.86 6.08 -0.31 c 1.11 0.32 2.31 0.08 3.21 -0.67 c 0.89 -0.74 1.36 -1.87 1.25 -3.03 c -0.73 -7.6 -9.34 -11.3 -13.47 -13.08 Z m -17.76 3.78 c 0.49 -0.29 1.31 -0.44 2.39 -0.44 c 3.53 0 9.13 1.59 12.61 3.09 c 1.56 0.67 4.28 1.84 6.39 3.4 c -0.72 0.12 -1.41 0.26 -2.09 0.4 c -1.1 0.23 -2.14 0.44 -3.18 0.54 c -1.97 0.2 -5.76 -0.08 -9.43 -1.17 c -1.7 -0.5 -7.21 -2.37 -6.9 -5.4 c 0.03 -0.33 0.08 -0.35 0.21 -0.43 Z" stroke-linecap="round" />
</g>
		<g transform="matrix(1.01 0 0 1.06 73.86 -15.4)"  >
<path style="stroke: none; stroke-width: 1; stroke-dasharray: none; stroke-linecap: butt; stroke-dashoffset: 0; stroke-linejoin: miter; stroke-miterlimit: 4; fill: rgb(0,0,0); fill-rule: nonzero; opacity: 1;"  transform=" translate(-325.2, -255.22)" d="M 332.97 249.57 c -1.29 -0.97 -12.85 -9.45 -20.16 -7.25 c -2.35 0.7 -4.04 2.33 -4.89 4.72 c -1.95 5.44 1.15 11.02 8.49 15.29 c 3.66 2.13 8.15 3.8 11.44 4.26 c 1.37 0.19 2.66 0.24 3.92 0.29 c 2.29 0.09 4.27 0.16 5.97 1.14 c 0.53 0.31 1.13 0.47 1.75 0.47 c 0.53 0 1.06 -0.12 1.53 -0.35 c 1.04 -0.51 1.77 -1.5 1.93 -2.65 c 1.1 -7.55 -6.38 -13.2 -9.98 -15.91 Z m 1.19 10.41 c -0.74 -0.05 -1.46 -0.08 -2.13 -0.11 c -1.13 -0.04 -2.19 -0.08 -3.22 -0.23 c -1.95 -0.27 -5.56 -1.44 -8.88 -3.38 c -1.53 -0.89 -6.44 -4.02 -5.42 -6.88 c 0.11 -0.31 0.17 -0.33 0.31 -0.37 c 0.21 -0.06 0.47 -0.09 0.76 -0.09 c 2.94 0 9.19 3.22 13.18 6.23 c 1.35 1.02 3.72 2.81 5.4 4.82 Z" stroke-linecap="round" />
</g>
		<g transform="matrix(1.01 0 0 1.06 64.6 -41.09)"  >
<path style="stroke: none; stroke-width: 1; stroke-dasharray: none; stroke-linecap: butt; stroke-dashoffset: 0; stroke-linejoin: miter; stroke-miterlimit: 4; fill: rgb(0,0,0); fill-rule: nonzero; opacity: 1;"  transform=" translate(-316.03, -230.98)" d="M 299.01 238.47 c 2.06 1.67 5.31 2.51 9.66 2.51 c 5.75 0 11.5 -1.49 11.74 -1.56 c 4.36 -1.14 13.42 -3.52 15.28 -10.92 c 0.28 -1.13 -0.01 -2.32 -0.78 -3.18 c -0.77 -0.86 -1.92 -1.29 -3.07 -1.14 c -1.95 0.26 -3.8 -0.43 -5.97 -1.22 c -1.17 -0.43 -2.38 -0.88 -3.73 -1.22 c -3.21 -0.82 -8 -0.99 -12.2 -0.41 c -8.41 1.16 -13.39 5.14 -13.66 10.92 c -0.12 2.53 0.83 4.68 2.73 6.22 Z m 4.26 -5.9 c 0.14 -3.04 5.87 -4.06 7.63 -4.31 c 1.34 -0.18 2.74 -0.28 4.17 -0.28 c 2.04 0 4.03 0.2 5.33 0.53 c 1 0.26 2 0.62 3.06 1.01 c 0.65 0.24 1.31 0.48 2.01 0.71 c -2.32 1.23 -5.19 1.98 -6.83 2.41 c -4.95 1.3 -13.14 2.07 -15.22 0.38 c -0.12 -0.09 -0.16 -0.13 -0.14 -0.46 Z" stroke-linecap="round" />
</g>
		<g transform="matrix(1.01 0 0 1.06 108.9 -2.87)"  >
<path style="stroke: none; stroke-width: 1; stroke-dasharray: none; stroke-linecap: butt; stroke-dashoffset: 0; stroke-linejoin: miter; stroke-miterlimit: 4; fill: rgb(0,0,0); fill-rule: nonzero; opacity: 1;"  transform=" translate(-359.9, -267.04)" d="M 354.21 249.68 c -2.43 -0.26 -4.63 0.58 -6.35 2.44 c -3.91 4.26 -3.24 10.59 1.86 17.39 c 2.54 3.39 6.02 6.67 8.87 8.38 c 1.19 0.71 2.36 1.26 3.5 1.79 c 2.08 0.97 3.87 1.81 5.05 3.38 c 0.66 0.87 1.7 1.39 2.79 1.39 h 0.18 c 1.16 -0.06 2.21 -0.69 2.81 -1.69 c 3.95 -6.53 -0.74 -14.64 -2.99 -18.54 c -0.32 -0.56 -7.99 -13.68 -15.73 -14.54 Z m 7.98 22.19 c -1.69 -1.01 -4.56 -3.5 -6.87 -6.57 c -1.06 -1.42 -4.37 -6.21 -2.31 -8.45 c 0.22 -0.24 0.28 -0.23 0.43 -0.22 c 2.67 0.29 7.88 6.65 10.44 11.08 c 0.85 1.47 2.33 4.03 3.1 6.54 c -0.64 -0.33 -1.28 -0.63 -1.9 -0.92 l -0.23 0.45 l 0.2 -0.46 c -1.02 -0.48 -1.98 -0.93 -2.87 -1.46 Z" stroke-linecap="round" />
</g>
		<g transform="matrix(1.01 0 0 1.06 170.11 14.44)"  >
<path style="stroke: none; stroke-width: 1; stroke-dasharray: none; stroke-linecap: butt; stroke-dashoffset: 0; stroke-linejoin: miter; stroke-miterlimit: 4; fill: rgb(0,0,0); fill-rule: nonzero; opacity: 1;"  transform=" translate(-420.5, -283.37)" d="M 429.38 278.72 c -0.44 -0.47 -10.94 -11.41 -18.72 -10.41 c -2.43 0.31 -4.36 1.65 -5.59 3.87 c -2.8 5.06 -0.65 11.06 5.91 16.46 c 3.27 2.69 7.43 5.06 10.6 6.05 c 1.32 0.41 2.59 0.67 3.82 0.92 c 2.25 0.46 4.2 0.85 5.71 2.09 c 0.62 0.51 1.41 0.79 2.21 0.79 c 0.34 0 0.68 -0.05 1 -0.15 c 1.11 -0.33 1.99 -1.19 2.33 -2.3 c 2.3 -7.28 -4.17 -14.05 -7.28 -17.31 Z m -2.69 10.51 h 0 l 0.1 -0.49 c -1.11 -0.22 -2.15 -0.44 -3.14 -0.74 c -1.88 -0.58 -5.25 -2.32 -8.22 -4.76 c -1.37 -1.13 -5.71 -5 -4.24 -7.66 c 0.16 -0.29 0.21 -0.29 0.36 -0.31 c 2.67 -0.35 9.22 4.6 12.76 8.3 c 1.17 1.22 3.22 3.37 4.55 5.63 c -0.7 -0.17 -1.39 -0.31 -2.07 -0.44 l -0.11 0.49 l 0.1 -0.49 l -0.1 0.49 Z" stroke-linecap="round" />
</g>
		<g transform="matrix(1.01 0 0 1.06 105.98 -33.04)"  >
<path style="stroke: none; stroke-width: 1; stroke-dasharray: none; stroke-linecap: butt; stroke-dashoffset: 0; stroke-linejoin: miter; stroke-miterlimit: 4; fill: rgb(0,0,0); fill-rule: nonzero; opacity: 1;"  transform=" translate(-357, -238.58)" d="M 376.57 238.65 h 0 c -0.54 -1.03 -1.54 -1.73 -2.7 -1.86 c -1.95 -0.23 -3.58 -1.35 -5.49 -2.66 c -1.03 -0.71 -2.09 -1.44 -3.31 -2.1 c -2.92 -1.6 -7.52 -2.93 -11.72 -3.41 c -8.43 -0.95 -14.25 1.67 -15.93 7.21 c -0.74 2.42 -0.35 4.74 1.11 6.7 c 4.5 6.03 18.78 6.2 20.39 6.2 h 0.11 c 4.5 -0.03 13.87 -0.1 17.5 -6.81 c 0.55 -1.02 0.56 -2.25 0.03 -3.28 Z m -17.57 3.09 c -5.16 0.04 -13.24 -1.24 -14.84 -3.39 c -0.09 -0.12 -0.12 -0.16 -0.03 -0.48 c 0.88 -2.88 6.46 -2.52 8.45 -2.29 c 3.82 0.43 7.41 1.64 9.14 2.59 c 0.9 0.49 1.77 1.09 2.72 1.74 c 0.57 0.39 1.15 0.79 1.77 1.18 c -2.55 0.61 -5.51 0.64 -7.21 0.65 v 0 Z" stroke-linecap="round" />
</g>
		<g transform="matrix(1.01 0 0 1.06 140.85 14.42)"  >
<path style="stroke: none; stroke-width: 1; stroke-dasharray: none; stroke-linecap: butt; stroke-dashoffset: 0; stroke-linejoin: miter; stroke-miterlimit: 4; fill: rgb(0,0,0); fill-rule: nonzero; opacity: 1;"  transform=" translate(-391.53, -283.35)" d="M 387.11 265.53 c -2.41 -0.43 -4.66 0.25 -6.5 1.99 c -4.2 3.98 -3.96 10.35 0.65 17.47 c 2.3 3.55 5.55 7.07 8.27 8.97 c 1.14 0.79 2.27 1.42 3.36 2.03 c 2.01 1.12 3.74 2.08 4.81 3.72 c 0.64 0.97 1.71 1.56 2.93 1.58 c 1.14 0 2.21 -0.56 2.86 -1.49 c 4.39 -6.24 0.27 -14.66 -1.71 -18.7 c -0.28 -0.58 -7.04 -14.2 -14.7 -15.59 Z m 6.43 22.69 c -1.62 -1.12 -4.31 -3.8 -6.39 -7.03 c -0.96 -1.49 -3.93 -6.5 -1.72 -8.59 c 0.22 -0.2 0.29 -0.2 0.32 -0.2 c 0.04 0 0.08 0 0.12 0.01 c 2.64 0.48 7.4 7.18 9.66 11.78 c 0.74 1.52 2.05 4.18 2.63 6.74 c -0.62 -0.38 -1.24 -0.72 -1.85 -1.06 l -0.24 0.44 l 0.24 -0.44 c -0.99 -0.55 -1.92 -1.06 -2.77 -1.66 Z" stroke-linecap="round" />
</g>
		<g transform="matrix(1.01 0 0 1.06 145.71 -16.04)"  >
<path style="stroke: none; stroke-width: 1; stroke-dasharray: none; stroke-linecap: butt; stroke-dashoffset: 0; stroke-linejoin: miter; stroke-miterlimit: 4; fill: rgb(0,0,0); fill-rule: nonzero; opacity: 1;"  transform=" translate(-396.34, -254.62)" d="M 397.28 265.69 l 0.06 -0.5 l -0.06 0.5 c 1.65 0.2 3.91 0.47 6.36 0.47 c 6.15 0 10.53 -1.77 13.03 -5.26 c 0.68 -0.94 0.84 -2.16 0.44 -3.25 c -0.4 -1.09 -1.31 -1.91 -2.44 -2.19 c -2.12 -0.53 -3.74 -1.97 -5.62 -3.65 c -1 -0.89 -2.04 -1.82 -3.24 -2.69 c -2.36 -1.71 -6.97 -3.98 -11.98 -5.2 c -8.76 -2.14 -15.22 -0.17 -17.72 5.39 c -1.08 2.41 -0.99 4.86 0.27 7.08 c 4.07 7.2 20.21 9.21 20.89 9.29 Z m -9.96 -15.61 c 1.8 0 3.64 0.36 4.87 0.65 c 4.06 0.99 7.79 2.8 9.53 4.06 c 0.92 0.67 1.78 1.43 2.7 2.25 c 0.7 0.63 1.43 1.27 2.21 1.9 c -2.99 0.46 -6.51 0.04 -8.51 -0.2 c -5.54 -0.67 -14.17 -3.19 -15.63 -5.79 c -0.11 -0.19 -0.18 -0.31 0.02 -0.76 c 0.63 -1.4 2.25 -2.11 4.81 -2.11 Z" stroke-linecap="round" />
</g>
		<g transform="matrix(1.01 0 0 1.06 -88.12 46.56)"  >
<path style="stroke: none; stroke-width: 1; stroke-dasharray: none; stroke-linecap: butt; stroke-dashoffset: 0; stroke-linejoin: miter; stroke-miterlimit: 4; fill: rgb(0,0,0); fill-rule: nonzero; opacity: 1;"  transform=" translate(-164.83, -313.68)" d="M 258.92 311.53 h -0.14 c -8.11 0.35 -35.74 2.07 -51.04 9.69 c -15.38 7.66 -31.16 18.26 -48.2 32.39 c -0.56 -5.99 -1.39 -12.73 -2.46 -19.99 c 0 -25.88 11.24 -42.71 35.37 -52.98 c 1.78 -0.76 2.6 -2.82 1.85 -4.59 c -0.76 -1.78 -2.81 -2.61 -4.59 -1.85 c -18.67 7.95 -30.47 19.7 -36.01 35.88 c -0.61 -14.53 -0.88 -52.41 10.23 -84.44 c 0.31 -0.88 0.25 -1.83 -0.16 -2.67 s -1.12 -1.47 -2 -1.78 c -0.88 -0.31 -1.83 -0.25 -2.67 0.16 s -1.47 1.12 -1.78 2 c -7.91 22.81 -10.27 47.88 -10.79 65.79 c -4.2 -12.14 -9.57 -24.31 -16.36 -37.1 c -10.48 -19.74 -29.01 -31.66 -54.67 -48.16 l -3.08 -1.98 c -1.41 -0.91 -3.28 -0.69 -4.44 0.54 c -1.16 1.22 -1.28 3.1 -0.3 4.46 l 3.93 5.43 c 26.74 36.91 41.47 57.25 46.15 96.99 c 0.85 7.21 1.99 18.94 3.2 31.35 l 0.05 0.5 c 0.93 9.55 1.89 19.42 2.79 27.97 c 0.21 1.95 1.37 12.13 4.14 21.57 c -2.71 5.24 -5.12 10.6 -7.13 15.17 c -0.37 0.83 -1.81 4.39 -2.97 7.9 c -2.22 6.7 -2.3 9.43 -0.29 11.22 c 0.72 0.65 1.67 1.01 2.66 1.01 c 0.79 0 1.59 -0.23 2.36 -0.67 c 2.39 -1.38 6.12 -2.29 9.74 -3.18 c 4.38 -1.08 8.91 -2.19 12.32 -4.33 c 5.04 -3.17 7.9 -7.21 10.92 -11.48 c 0.96 -1.35 1.95 -2.75 3.02 -4.13 c 1.96 -2.51 3.84 -4.96 5.7 -7.36 c 11.29 -14.64 21.03 -27.28 35.68 -40.01 c 18.86 -16.39 41.42 -30.03 60.33 -36.49 l 0.47 -0.17 v -0.03 c 0.62 -0.31 1.12 -0.78 1.47 -1.43 c 0.69 -1.26 0.54 -2.84 -0.39 -3.94 c -0.72 -0.86 -1.81 -1.32 -2.91 -1.24 Z m -110.71 51.8 c -5.67 5.03 -10.66 11.08 -15.24 18.46 c -0.98 -4.41 -1.73 -9.02 -2.2 -13.4 c -0.9 -8.52 -1.86 -18.37 -2.79 -27.91 l -0.04 -0.45 c -1.22 -12.47 -2.36 -24.26 -3.22 -31.55 c -4.42 -37.57 -18.23 -59.66 -40.41 -90.55 c 19.84 13.11 32.15 23.19 39.68 37.39 c 13.5 25.43 21.34 48.42 25.44 74.53 c 1.21 7.72 2.81 19.04 3.55 29.31 c -1.58 1.36 -3.17 2.75 -4.77 4.17 Z m -20.98 45.35 c 6.85 -15.58 13.51 -29.36 25.63 -40.12 c 21.36 -18.96 39.79 -32.01 58.01 -41.08 c 5.95 -2.96 15.26 -5.38 27.02 -7.02 c -14.53 7.54 -29.53 17.79 -42.53 29.08 c -15.18 13.19 -25.13 26.09 -36.69 41.09 c -1.82 2.36 -3.68 4.78 -5.62 7.26 c -1.16 1.49 -2.2 2.96 -3.22 4.4 c -2.72 3.85 -5.07 7.17 -8.93 9.6 c -2.45 1.54 -6.42 2.52 -10.27 3.46 c -2.17 0.53 -4.41 1.08 -6.51 1.77 c 0.93 -2.97 2.28 -6.55 3.1 -8.43 Z" stroke-linecap="round" />
</g>
</g>
</g>
</svg>